<svg width="14" height="20" viewBox="0 0 14 20" fill="none" xmlns="http://www.w3.org/2000/svg">
<path fill-rule="evenodd" clip-rule="evenodd" d="M9.36731 0H11.64C12.5688 0 13.3 0.752475 13.3 1.66337V18.3366C13.3 19.2475 12.5688 20 11.64 20H1.66003C0.750966 20 0 19.2673 0 18.3366V1.66337C0 0.752475 0.731204 0 1.66003 0H3.93269H5.75082H7.54918H9.36731ZM10.81 18.3564C11.2645 18.3564 11.64 17.9802 11.64 17.5248H11.6597V2.49505C11.6597 2.0396 11.2842 1.66337 10.8297 1.66337H9.38707V2.49505C9.38707 2.9505 8.97207 3.32673 8.47801 3.32673H7.56895H5.75082H4.84175C4.3477 3.32673 3.93269 2.9505 3.93269 2.49505V1.66337H2.49004C2.03551 1.66337 1.66003 2.0396 1.66003 2.49505V17.5248C1.66003 17.9802 2.03551 18.3564 2.49004 18.3564H10.81ZM4.98027 17.5247H8.32009C8.77462 17.5247 9.15011 17.1485 9.15011 16.693C9.15011 16.2376 8.77462 15.8613 8.32009 15.8613H4.98027C4.52574 15.8613 4.15026 16.2376 4.15026 16.693C4.15026 17.1485 4.52574 17.5247 4.98027 17.5247Z" fill="#F7F8FC"/>
</svg>
